<svg width="85" height="98" viewBox="0 0 85 98" fill="none" xmlns="http://www.w3.org/2000/svg">
<path d="M79.7734 54.1552C77.3525 54.7688 70.9654 58.6771 64.7418 63.2308C50.1193 73.9198 50.202 73.7843 50.5926 71.1671C50.6228 69.9003 52.5316 64.4944 54.5504 59.0606C58.3114 48.9499 58.5344 47.5198 56.2295 45.3568C54.2265 43.4607 53.3432 45.0582 49.6873 57.4316C45.0624 72.9122 39.8476 81.4455 31.919 86.2024C28.5604 88.1984 23.632 91.3936 20.9881 93.4373L16.2515 96.9273L19.6315 97.7875C23.7262 98.6956 28.267 96.7433 35.923 90.9108C44.7087 83.9907 50.4307 82.5403 61.5629 83.9538C73.0525 85.3912 81.7425 84.562 82.1058 81.8372C82.4419 79.0048 79.4465 78.276 66.057 78.1215C59.1558 78.1538 53.245 77.9351 52.9431 77.6682C52.5585 77.5367 55.1186 76.0865 58.449 74.4411C76.8615 65.7676 85.4533 59.469 84.3628 55.1667C83.9538 53.5534 83.0745 53.3184 79.7734 54.1552Z" fill="#CEB2B2"/>
<path d="M42.7714 25.9893C40.0253 24.396 35.2372 26.2965 27.8568 31.8302C24.0288 34.7464 20.3945 37.0412 19.8171 37.0731C19.3224 36.9696 21.2292 32.4799 24.0728 27.066C32.6035 10.8242 34.822 2.0203 30.7555 0.761723C28.6123 0.160328 22.1821 11.291 18.088 22.8597C15.7927 29.0504 13.7193 34.269 13.2792 34.3806C12.839 34.4922 10.8439 28.9312 8.98903 22.0755C5.60545 10.1128 5.33184 9.4954 3.04929 9.73057C-0.360906 10.1371 0.233954 14.7939 5.32164 27.0114C10.0257 38.6393 10.0743 41.6031 5.68525 49.6981C3.80869 52.921 1.73438 58.5978 1.03901 62.3225C-0.100466 67.9913 0.0066152 69.3377 1.81682 71.3971L3.87338 73.9665L5.06245 70.8034C7.49709 63.7761 12.4938 54.3824 16.0774 50.0401C18.1448 47.5701 25.4162 41.6061 32.2727 36.7776C39.1565 32.0565 44.6643 27.9132 44.5825 27.5906C44.4735 27.1603 43.7325 26.5469 42.7714 25.9893Z" fill="#CEB2B2"/>
</svg>
