<svg width="1440" height="879" viewBox="0 0 1440 879" fill="none" xmlns="http://www.w3.org/2000/svg">
<rect width="1440" height="879" fill="#F1EDEA"/>
<path d="M1347.46 234.232C1346.26 231.656 1341.36 228.125 1334.66 225.142C1330.99 223.513 1327.2 221.505 1326.25 220.685C1324.73 219.375 1324.81 219.025 1326.36 218.257C1327.37 217.728 1332.58 217.186 1337.98 216.943C1347.4 216.525 1349.68 215.549 1348.3 212.539C1347.95 211.537 1343.93 211.847 1335.71 213.438C1329.15 214.641 1322.61 215.305 1321.19 214.777C1319.76 214.385 1314.95 211.773 1310.33 209.189C1301.69 204.109 1297.72 203.206 1298.18 206.26C1298.32 207.368 1301.41 210.315 1307.45 214.964L1316.6 221.884L1317.08 228.745C1317.74 236.175 1320.6 245.651 1322.59 246.669C1324.65 247.743 1324.73 241.373 1322.79 233.391C1321.91 229.549 1321.34 226.116 1321.63 225.525C1321.85 225.014 1325.97 226.891 1330.9 229.748C1340.44 235.458 1345.35 237.45 1346.97 236.333C1347.52 235.96 1347.75 235.045 1347.46 234.232Z" fill="#E7DFDF"/>
<path d="M1378.38 176.023C1377.49 172.586 1373.63 172.196 1361.51 174.342C1355.02 175.465 1349.46 176.273 1349.21 176.054C1348.57 175.508 1352.6 172.12 1359.59 167.224C1366.44 162.488 1369.16 158.952 1367.39 157.423C1366.25 156.439 1365.03 157.345 1355.99 165.379C1344.56 175.549 1341.13 177.485 1333.75 177.843C1324.07 178.178 1320.31 178.707 1317.62 180.029C1310.7 183.442 1317.12 185.207 1329.04 183.167C1334.47 182.25 1339.81 181.817 1340.91 182.206C1342.08 182.65 1346.59 185.988 1351.03 189.677C1355.84 193.693 1359.92 196.514 1361.17 196.607C1363.13 196.762 1363.14 196.492 1361.97 193.376C1360.85 190.585 1359.52 189.303 1354.23 185.714C1350.66 183.33 1347.79 181.276 1347.73 181.087C1347.74 180.952 1354.39 180.533 1362.62 180.21C1370.79 179.833 1377.85 179.202 1378.2 178.801C1378.61 178.319 1378.67 177.105 1378.38 176.023Z" fill="#E7DFDF"/>
<path d="M1244.67 183.051C1242.96 180.172 1237.14 176.686 1229.05 173.771C1220.46 170.553 1219.69 168.629 1226.81 168.053C1229.45 167.809 1234.07 167.316 1237.18 166.78C1242.15 166.02 1242.95 165.596 1244.38 163.181L1245.88 160.416L1234.06 163.105C1227.56 164.497 1221.15 165.405 1219.78 165.067C1218.42 164.73 1213.33 162.303 1208.52 159.826C1199.4 155.038 1195.35 154.35 1194.56 157.446C1194 159.626 1197.17 162.223 1206.42 166.985C1210.4 169.022 1214.17 171.57 1214.84 172.711C1215.52 173.716 1216.44 178.152 1216.77 182.501C1217.48 189.985 1219.51 197.617 1220.63 197.467C1222.29 197.078 1222.24 190.87 1220.34 183.347C1219.18 178.557 1218.39 174.231 1218.47 173.746C1218.63 173.18 1219.92 173.733 1221.31 174.935C1224.98 178.103 1234.52 183.678 1239.56 185.645C1244.28 187.473 1246.63 186.282 1244.67 183.051Z" fill="#E7DFDF"/>
<path d="M1277.21 125.397C1277.39 121.485 1273 121.198 1256.32 123.892C1250.83 124.755 1246.34 125.223 1246.42 124.873C1246.44 124.468 1249.78 121.748 1253.85 118.82C1261.46 113.336 1265.32 109.244 1264.47 107.535C1263.69 105.881 1260.17 108.302 1251.8 116.208C1240.76 126.57 1238.6 127.655 1228.1 127.415C1222.13 127.301 1218.36 127.831 1216.07 129.076C1214.18 130.11 1212.55 131.362 1212.59 131.822C1212.46 133.386 1218.28 134.065 1225.66 133.437C1235.75 132.621 1237.97 133.129 1244.48 137.351C1252.27 142.395 1257.68 144.96 1260.25 144.796C1262.29 144.736 1262.29 144.601 1261.28 142.189C1260.39 140.02 1259.05 139.143 1253.57 136.794C1249.51 135.107 1246.69 133.378 1246.22 132.266C1245.5 130.667 1247.02 130.439 1258.07 130.172C1271.17 129.844 1277.08 128.365 1277.21 125.397Z" fill="#E7DFDF"/>
<path d="M1113.7 206.733C1112.3 205.532 1106.93 203.696 1101.14 202.343C1087.55 199.157 1087.69 199.131 1089.78 197.856C1090.73 197.137 1095.48 195.214 1100.3 193.346C1109.26 189.873 1110.41 189.182 1111.12 186.436C1111.75 184.04 1110.23 184.403 1099.63 189.263C1086.34 195.312 1077.99 196.928 1071.39 194.595C1068.61 193.595 1064.33 192.284 1061.79 191.773L1057.37 190.756L1058.04 193.435C1058.95 196.603 1062.16 198.389 1069.45 199.92C1077.98 201.544 1081.27 204.384 1084.53 212.38C1087.91 220.619 1091.89 225.733 1094.05 224.379C1096.28 222.943 1095.66 220.589 1090.6 211.873C1087.91 207.447 1085.78 203.512 1085.86 203.161C1085.81 202.837 1087.88 203.641 1090.39 204.826C1103.95 211.629 1111.95 213.491 1114.72 210.28C1115.76 209.075 1115.6 208.372 1113.7 206.733Z" fill="#E7DFDF"/>
<path d="M1120.29 166.473C1120.41 163.775 1117.15 161.799 1110.19 160.271C1106.54 159.506 1103.43 158.503 1103.19 158.15C1103.07 157.771 1107.14 156.381 1112.26 155.056C1127.62 151.08 1135.01 147.375 1134.37 144.021C1133.99 142.29 1123.24 144.639 1113.07 148.748C1107.58 150.879 1102.91 152.587 1102.66 152.368C1102.4 152.15 1105.76 147.622 1110.13 142.429C1117.7 133.273 1118.06 132.737 1117 131.404C1115.38 129.444 1112.15 132.543 1105.05 142.945C1098.23 152.756 1096.05 154.515 1088.35 156.409C1085.23 157.079 1080.21 159.053 1077.18 160.777C1072.53 163.349 1071.57 164.203 1070.74 166.57L1069.63 169.393L1072.44 168.315C1078.6 165.785 1087.5 163.526 1092.11 163.302C1094.75 163.194 1101.99 164.4 1108.22 166.001C1114.39 167.682 1119.6 168.814 1119.8 168.573C1120.08 168.252 1120.25 167.417 1120.29 166.473Z" fill="#E7DFDF"/>
<path d="M972.865 270.104C970.904 268.411 963.314 266.203 948.933 263.035C947.176 262.64 950.804 260.868 958.472 258.38C966.279 255.732 969.187 253.899 969.642 251.069C970.067 248.914 970.003 248.86 967.738 249.566C966.469 250.012 962.784 251.595 959.566 253.02C950.449 257.058 941.846 259.86 938.827 259.776C937.248 259.814 933.615 258.779 930.581 257.561C924.184 255.122 919.984 254.999 917.582 257.269C916.006 258.711 916.127 258.955 919.074 260.658C920.8 261.728 925.187 263.553 928.809 264.858C936.444 267.526 941.644 271.735 946.326 278.719C948.05 281.327 950.038 283.885 950.734 284.485C951.747 285.359 949.306 278.209 945.67 269.886C945.016 268.341 945.085 268.26 946.658 268.357C947.574 268.447 951.973 270.003 956.36 271.828C967.011 276.119 971.256 276.701 973.474 274.132C974.999 272.366 974.953 271.907 972.865 270.104Z" fill="#E7DFDF"/>
<path d="M979.661 228.334C978.245 227.672 974.225 226.444 970.787 225.438C967.343 224.567 963.924 223.156 963.24 222.285C962.056 220.843 963.059 220.448 973.418 218.042C979.661 216.565 986.251 214.688 988.125 213.924C994.491 211.154 996.016 206.445 990.415 206.794C988.767 206.912 982.165 209.06 975.747 211.506C969.26 214.032 963.454 216.025 962.929 215.993C962.273 215.986 964.653 212.717 969.366 207.258C976.85 198.587 978.14 196.198 976.305 194.614C975.672 194.068 972.912 197.009 964.659 206.698C952.589 220.937 954.758 219.447 939.895 224.13C931.096 226.903 927.496 229.539 929.71 231.451C931.419 232.925 936.336 231.706 945.321 227.693C955.915 222.968 956.964 223.032 968.666 228.791C973.041 230.886 979.251 231.623 981.288 230.159C982.032 229.681 981.532 229.109 979.661 228.334Z" fill="#E7DFDF"/>
<path d="M856.369 285.969C855.516 282.992 849.867 278.535 842.331 275.113C838.595 273.429 835.25 271.803 834.807 271.42C833.226 270.055 836.615 269.198 845.184 268.609C853.817 268.075 857.369 266.518 856.05 263.697C855.522 262.262 851.645 262.277 840.343 263.729C830.43 264.979 825.262 264.442 816.338 261.221L808.639 258.499L817.091 264.954L825.542 271.409L826.536 281.514C827.079 287.026 828.058 293.055 828.763 294.924C829.793 298.336 832.026 299.842 833.412 298.237C834.382 297.113 833.31 288.761 831.249 281.939C830.212 278.662 829.619 275.768 829.896 275.447C830.104 275.206 832.93 276.665 836.049 278.937C844.018 284.415 852.825 288.795 855.016 288.304C856.607 287.996 856.82 287.62 856.369 285.969Z" fill="#E7DFDF"/>
<path d="M887.594 226.899C887.832 223.041 878.522 222.57 865.701 225.654C855.204 228.221 855.372 227.386 866.988 218.919C875.141 212.927 877.308 210.034 875.156 208.177C874.334 207.467 873.43 207.107 873.083 207.508C872.806 207.829 868.488 211.808 863.357 216.345C851.721 226.756 847.614 228.955 839.403 228.872C832.039 228.961 829.255 229.5 825.736 231.786C823.774 233.035 823.359 233.516 823.991 234.063C825.257 235.155 833.6 235.212 840.81 234.15C844.384 233.592 848.394 233.551 849.696 233.834C850.991 234.252 855.957 237.838 860.639 241.88C868.421 248.598 869.319 249.093 870.169 247.724C872.152 244.532 870.124 241.381 863.339 237.345C857.521 233.724 855.704 231.735 858.331 231.761C865.626 231.753 882.378 230.383 884.316 229.673C887.055 228.675 887.603 228.168 887.594 226.899Z" fill="#E7DFDF"/>
<path d="M802.503 167.878C800.795 166.403 795.263 163.73 789.828 161.84C784.588 159.979 780.264 158.208 780.346 157.858C780.358 157.588 784.019 156.545 788.602 155.457C793.115 154.45 797.843 153.066 799.117 152.485C802.076 150.976 803.031 148.719 801.386 147.299C800.5 146.534 797.117 147.256 790.105 149.75C777.818 154.134 771.165 155.957 769.357 155.237C753.536 149.006 750.08 148.404 748.76 151.468C747.591 154.102 752.207 156.685 761.21 158.152C765.121 158.866 769.267 160.203 770.532 161.295C771.861 162.442 773.961 166.917 775.925 172.956C778.869 182.082 781.752 186.673 783.208 184.987C784.594 183.381 783.268 177.753 779.869 171.457C777.929 167.821 776.564 164.541 776.841 164.22C777.119 163.899 781.183 165.586 785.944 167.874C795.908 172.832 802.347 174.328 804.287 172.08C805.396 170.795 805.098 170.117 802.503 167.878Z" fill="#E7DFDF"/>
<path d="M754.248 216.872C754.197 213.605 750.055 204.845 745.824 199.512C741.853 194.263 741.745 193.749 744.752 194.103C746.186 194.36 749.756 195.341 752.733 196.369C759.073 198.619 762.622 198.601 764.424 196.513C766.503 194.105 764.189 192.948 752.785 190.809C740.275 188.417 737.852 186.746 733.999 177.395C730.971 170.158 729.476 168.307 726.249 168.464C724.146 168.47 724.071 168.685 725.119 171.691C725.767 173.371 727.954 177.361 730.057 180.297C735.17 187.934 735.634 192.257 732.693 205.13C731.374 211.136 730.237 217.441 730.165 219.06C730.096 222.082 730.159 222.137 731.476 220.611C732.862 219.006 734.121 214.349 736.415 202.738C737.02 199.478 737.728 196.867 737.993 196.815C738.259 196.764 740.06 200.561 742.016 205.331C747.418 218.261 749.325 221.168 751.977 220.655C753.965 220.27 754.173 220.029 754.248 216.872Z" fill="#E7DFDF"/>
<path d="M720.8 118.365C719.492 115.275 713.638 112.463 703.628 109.988C699.338 108.946 695.837 107.885 695.779 107.696C695.855 107.48 699.736 105.927 704.475 104.274C713.62 101.099 716.521 99.4008 717.703 96.4974C718.432 94.8852 718.04 94.8273 714.909 95.7676C712.909 96.4224 707.425 98.5539 702.667 100.612C690.47 105.915 689.22 105.956 680.217 101.547C670.057 96.56 665.523 96.5685 665.76 101.538C665.854 103.86 669.855 105.492 679.629 107.345C683.604 108.113 687.37 109.123 688.003 109.669C688.635 110.215 690.527 114.931 692.13 120.237C693.802 125.464 696.113 131.101 697.361 132.598L699.602 135.374L699.72 131.272C699.69 129.005 698.753 124.973 697.56 122.262C696.303 119.496 694.875 116.162 694.354 114.591C693.414 112.099 693.42 111.964 695.448 112.173C696.623 112.347 700.877 114.198 704.981 116.479C715.433 122.279 722.887 123.11 720.8 118.365Z" fill="#E7DFDF"/>
<path d="M670.827 164.615C670.851 161.134 669.285 157.96 663.298 149.289L657.932 141.435L661.382 142.171C663.271 142.541 667.227 143.714 670.273 144.663C677.2 146.999 679.568 146.942 680.87 144.283C682.235 141.678 680.686 141.042 668.441 138.598C655.552 135.877 654.401 135.164 650.357 125.649C646.612 116.812 645.428 115.37 642.632 116.179C640.966 116.702 640.683 117.158 640.776 119.48C640.905 120.993 642.219 123.948 643.828 126.178C645.304 128.433 647.718 131.777 648.947 133.679C652.096 138.218 652.05 143.643 648.983 153.465C646.681 160.865 645.563 169.707 646.958 169.37C648.214 169.194 650.83 160.663 652.24 152.634C653.038 147.999 653.864 144.228 654.129 144.177C654.262 144.151 656.488 148.735 658.932 154.347C663.641 165.137 667.308 169.844 669.628 167.923C670.246 167.336 670.905 165.804 670.827 164.615Z" fill="#E7DFDF"/>
<path d="M575.577 103.549C574.98 102.194 570.916 97.5641 566.246 93.2525C560.259 87.5242 558.328 85.1565 559.141 84.5978C559.747 84.28 563.176 84.0174 566.719 84.1339C575.776 84.3866 584.177 81.6905 581.456 79.3419C580.38 78.4134 569.334 78.5457 561.934 79.4432C554.465 80.4211 551.696 79.1517 542.862 70.9655C538.692 67.2258 535.142 64.3021 534.865 64.6232C534.588 64.9443 534.516 66.5631 534.639 68.2109C534.847 70.9122 535.778 72.1362 541.599 77.1611C549.888 84.3162 550.949 87.053 550.234 98.6256C549.752 106.476 551.084 114.91 552.47 113.305C554.479 110.977 554.995 106.798 554.028 100.499C552.964 93.4164 553.495 87.4294 555.076 88.7949C555.519 89.1772 557.818 92.1424 560.238 95.3517C565.444 102.368 569.677 106.162 573.001 106.789C576.065 107.333 576.827 106.45 575.577 103.549Z" fill="#E7DFDF"/>
<path d="M616.281 47.0572C616.019 45.57 607.932 44.1933 597.176 43.7346C592.325 43.4701 588.338 42.9713 588.356 42.5666C588.374 42.1619 591.824 39.9561 596.202 37.5706C605.633 32.4016 608.722 29.4634 607.101 27.5037C605.79 25.952 602.358 27.7531 593.102 34.8943C582.824 42.8351 580.022 43.7787 569.474 43.0792C559.19 42.3284 555.288 42.8831 554.131 45.2469C552.591 48.8214 560.832 51.1713 568.021 49.111C569.088 48.7708 571.79 48.5819 573.888 48.7109C577.431 48.8273 578.455 49.4314 587.82 57.515C594.843 63.5777 598.151 66.0131 598.965 65.4544C600.863 64.1508 597.347 59.014 591.806 55.0716C583.141 48.9925 583.846 47.9199 595.25 50.0586C600.658 51.0845 607.134 51.7702 609.577 51.4977C613.801 51.0812 616.646 49.1932 616.281 47.0572Z" fill="#E7DFDF"/>
<path d="M15.693 464.54C18.3731 465.138 22.7209 469.035 26.9231 474.743C29.2213 477.872 31.901 481.032 32.8708 481.758C34.4225 482.92 34.7361 482.771 35.1404 481.153C35.4315 480.09 34.8632 475.055 33.9748 469.908C32.4208 460.934 32.8705 458.582 35.9967 459.258C37.0151 459.381 37.5545 463.242 37.7539 471.33C37.9762 477.771 38.7028 484.077 39.4947 485.31C40.1606 486.577 43.6225 490.578 47.0167 494.401C53.6013 501.509 55.2755 505.067 52.298 505.27C51.2214 505.36 47.8012 503.055 42.1635 498.321L33.7361 491.113L27.1601 492.078C20.0119 492.999 10.4748 492.259 9.10099 490.59C7.66254 488.872 13.6566 487.471 21.5935 487.653C25.4019 487.688 28.761 487.515 29.2589 487.12C29.6954 486.806 27.0707 483.304 23.3533 479.24C15.9896 471.42 13.0934 467.202 13.8113 465.435C14.0507 464.846 14.8654 464.432 15.693 464.54Z" fill="#E7DFDF"/>
<path d="M64.238 423.301C67.6681 423.437 68.8348 426.999 69.3182 438.885C69.6019 445.244 69.9892 450.656 70.2478 450.85C70.8943 451.334 73.2582 446.83 76.4339 439.221C79.4868 431.776 82.2611 428.475 84.0714 429.831C85.2351 430.703 84.6336 432.045 78.9197 442.235C71.6859 455.128 70.5701 458.774 71.7589 465.81C73.4454 475.012 73.7262 478.679 73.034 481.49C71.2452 488.73 68.249 483.028 67.7073 471.355C67.4494 466.04 66.7517 460.908 66.157 459.95C65.4976 458.944 61.4115 455.372 57.0119 451.949C52.2244 448.235 48.717 444.968 48.3712 443.813C47.8186 441.991 48.0708 441.923 51.2552 442.388C54.1228 442.871 55.6066 443.854 60.0902 448.108C63.0803 450.988 65.6114 453.267 65.8022 453.282C65.9283 453.249 64.9462 446.879 63.5474 439.045C62.2131 431.259 61.3475 424.465 61.6547 424.055C62.0234 423.563 63.1582 423.26 64.238 423.301Z" fill="#E7DFDF"/>
<path d="M85.2813 550.972C88.3525 551.991 92.849 556.767 97.274 563.794C102.09 571.243 104.065 571.57 103.135 564.727C102.819 562.185 102.328 557.72 102.189 554.671C101.879 549.829 102.112 548.979 104.098 547.137L106.397 545.145L106.305 556.857C106.336 563.283 106.807 569.526 107.408 570.744C108.01 571.963 111.352 576.258 114.688 580.293C121.095 587.908 122.581 591.583 119.823 592.974C117.88 593.952 114.774 591.497 108.364 583.752C105.616 580.414 102.432 577.389 101.217 576.991C100.127 576.559 95.7497 576.61 91.5758 577.197C84.363 578.07 76.7397 577.738 76.6493 576.646C76.6722 574.999 82.5434 573.762 90.0373 573.996C94.7995 574.105 99.0476 573.958 99.4873 573.775C99.9885 573.51 99.1998 572.407 97.7774 571.342C94.0275 568.534 86.7899 560.68 83.8905 556.332C81.1882 552.26 81.8254 549.792 85.2813 550.972Z" fill="#E7DFDF"/>
<path d="M132.966 508.32C136.623 507.345 137.803 511.43 138.712 527.733C139.035 533.096 139.522 537.431 139.836 537.281C140.214 537.181 142.09 533.463 144.011 529.012C147.613 520.698 150.676 516.205 152.463 516.648C154.187 517.042 152.631 520.871 146.901 530.408C139.405 542.977 138.826 545.232 141.227 555.097C142.571 560.713 142.852 564.381 142.15 566.8C141.565 568.795 140.721 570.596 140.278 570.648C138.83 571.1 136.984 565.748 136.048 558.645C134.73 548.951 133.792 546.968 128.459 541.693C122.084 535.383 118.545 530.811 118.167 528.351C117.802 526.413 117.928 526.38 120.414 526.833C122.644 527.223 123.75 528.307 127.102 532.994C129.536 536.482 131.75 538.78 132.898 539C134.556 539.345 134.456 537.862 132.421 527.375C130.02 514.949 130.193 509.06 132.966 508.32Z" fill="#E7DFDF"/>
<path d="M90.037 679.505C91.4594 680.57 94.3038 685.261 96.7796 690.445C102.601 702.615 102.597 702.484 103.367 700.244C103.849 699.196 104.68 694.313 105.447 689.381C106.871 680.204 107.285 678.977 109.729 677.735C111.86 676.642 111.834 678.159 109.44 689.17C106.48 702.959 106.683 711.178 110.251 716.923C111.77 719.342 113.894 723.109 114.902 725.4L116.777 729.365L114.11 729.288C110.932 729.085 108.582 726.429 105.628 719.863C102.328 712.142 98.9659 709.624 90.7446 708.205C82.268 706.722 76.6171 704.027 77.4483 701.704C78.3409 699.299 80.6912 699.395 89.9662 702.372C94.7023 703.998 98.8565 705.189 99.1701 705.039C99.487 705.021 98.3007 703.236 96.6619 701.112C87.4332 689.719 84.0201 682.553 86.4775 679.272C87.3991 678.041 88.0974 678.052 90.037 679.505Z" fill="#E7DFDF"/>
<path d="M126.675 664.945C129.197 664.273 131.737 666.944 134.62 673.2C136.097 676.483 137.688 679.211 138.072 679.371C138.454 679.4 138.923 675.27 139.115 670.164C139.689 654.844 141.655 647.098 144.953 647.007C146.666 647.009 146.675 657.643 144.902 668.096C144.025 673.713 143.381 678.481 143.64 678.674C143.898 678.868 147.478 674.762 151.474 669.561C158.549 660.518 158.982 660.074 160.46 660.797C162.645 661.921 160.388 665.609 152.039 674.466C144.189 682.927 142.979 685.35 142.788 693.018C142.8 696.1 141.975 701.244 140.976 704.465C139.51 709.386 138.903 710.467 136.84 711.739L134.405 713.373L134.842 710.499C135.955 704.162 136.244 695.287 135.501 690.89C135.058 688.381 132.421 681.797 129.619 676.241C126.755 670.767 124.609 666.087 124.793 665.84C125.039 665.512 125.792 665.18 126.675 664.945Z" fill="#E7DFDF"/>
<path d="M59.37 825.557C61.3743 827.058 65.0299 833.765 70.9963 846.685C71.7332 848.261 72.6551 844.47 73.4158 836.717C74.2994 828.799 75.4281 825.675 78.0049 824.66C79.9513 823.813 80.0159 823.861 79.8184 826.146C79.6599 827.436 78.9287 831.242 78.2494 834.574C76.3246 844.017 75.4603 852.717 76.1647 855.549C76.4555 857.047 78.1847 860.263 79.9625 862.875C83.5892 868.408 84.5748 872.347 82.9288 875.084C81.8941 876.87 81.6387 876.807 79.4212 874.378C78.0538 872.969 75.4227 869.206 73.4412 866.058C69.3427 859.403 64.2933 855.365 56.7318 852.391C53.9128 851.305 51.0873 849.957 50.3762 849.424C49.3417 848.65 56.5964 849.473 65.2055 851.183C66.7993 851.48 66.8608 851.398 66.4439 849.934C66.1692 849.088 63.7902 845.257 61.1591 841.494C54.9045 832.328 53.476 828.442 55.442 825.817C56.7936 824.012 57.2365 823.959 59.37 825.557Z" fill="#E7DFDF"/>
<path d="M97.3916 810.497C98.3096 811.697 100.301 815.236 101.962 818.273C103.497 821.344 105.537 824.28 106.5 824.745C108.107 825.564 108.272 824.535 108.399 814.259C108.5 808.061 108.909 801.452 109.242 799.525C110.539 792.942 114.668 790.528 115.498 795.887C115.727 797.468 115.067 804.143 114.087 810.708C113.045 817.354 112.365 823.247 112.504 823.736C112.646 824.354 115.239 821.431 119.417 815.852C126.052 806.993 128.041 805.281 129.916 806.685C130.562 807.169 128.357 810.383 120.92 820.179C109.978 834.52 110.935 832.164 109.591 847.163C108.795 856.042 107.052 859.986 104.789 858.292C103.043 856.984 103.177 852.09 105.105 842.779C107.372 831.8 107.094 830.824 99.2363 820.97C96.353 817.274 94.3719 811.565 95.3323 809.339C95.6299 808.537 96.2732 808.891 97.3916 810.497Z" fill="#E7DFDF"/>
<path d="M1049.02 417.234C1047.1 417.069 1043.08 418.385 1038.59 420.707C1036.13 421.981 1033.41 423.202 1032.56 423.418C1031.19 423.764 1031.04 423.626 1031.28 422.677C1031.42 422.049 1033.36 419.429 1035.54 416.807C1039.34 412.235 1039.79 410.881 1037.56 410.677C1036.86 410.558 1035.31 412.548 1032.66 416.887C1030.5 420.331 1028.07 423.61 1027.17 424.132C1026.35 424.696 1022.86 426.23 1019.48 427.679C1013.01 430.325 1010.82 431.945 1012.68 432.597C1013.35 432.842 1016.27 432.218 1021.39 430.684L1029.08 428.321L1033.03 430.041C1037.36 431.842 1043.74 433.18 1045.15 432.527C1046.62 431.86 1043.18 430.01 1038 428.662C1035.53 427.987 1033.42 427.281 1033.22 426.977C1033.03 426.728 1035.82 425.311 1039.49 423.79C1046.68 420.902 1049.87 419.148 1049.96 418.061C1049.99 417.699 1049.59 417.326 1049.02 417.234Z" fill="#CEB2B2"/>
<path d="M1030.54 386.079C1028.28 385.528 1026.41 387.242 1022.39 393.584C1020.23 396.972 1018.29 399.829 1018.06 399.887C1017.49 400.031 1017.37 397.164 1017.69 392.469C1018.04 387.885 1017.28 385.594 1015.69 385.998C1014.67 386.257 1014.64 387.093 1015.15 393.646C1015.8 401.939 1015.38 404.115 1012.42 407.704C1008.46 412.375 1007.13 414.308 1006.7 415.954C1005.6 420.196 1009.31 417.658 1013.31 411.442C1015.13 408.614 1017.18 405.965 1017.86 405.555C1018.6 405.131 1022.36 403.943 1026.27 402.893C1030.52 401.757 1033.8 400.629 1034.38 400.067C1035.31 399.182 1035.17 399.099 1032.97 398.77C1030.96 398.509 1029.7 398.771 1025.48 400.255C1022.65 401.268 1020.3 402.04 1020.17 402.013C1020.1 401.972 1022.72 398.705 1026.07 394.722C1029.36 390.754 1032.04 387.236 1031.97 386.958C1031.88 386.625 1031.25 386.254 1030.54 386.079Z" fill="#CEB2B2"/>
<path d="M977.123 451.309C974.822 451.301 970.428 453.065 965.379 456.06C959.945 459.211 958.568 459.028 961.303 455.496C962.3 454.179 964.01 451.853 965.05 450.229C966.761 447.666 966.875 447.164 966.168 445.806L965.305 444.309L961.711 450.661C959.686 454.132 957.435 457.423 956.667 457.972C955.898 458.522 952.4 460.237 948.987 461.812C942.475 464.764 940.368 466.48 941.715 467.736C942.665 468.619 945.437 467.857 951.992 464.835C954.808 463.53 957.808 462.474 958.717 462.48C959.555 462.445 962.366 463.27 964.878 464.348C969.264 466.135 974.29 467.345 974.689 466.77C975.188 465.875 971.782 464.136 966.87 462.897C963.761 462.089 961.063 461.235 960.836 461.055C960.595 460.821 961.449 460.368 962.7 460.051C965.997 459.215 973.121 456.286 976.349 454.462C979.364 452.751 979.723 451.3 977.123 451.309Z" fill="#CEB2B2"/>
<path d="M959.633 419.547C957.576 418.353 955.54 420.348 949.867 429.001C947.986 431.843 946.319 434.099 946.163 433.962C945.95 433.838 945.899 431.485 946.047 428.727C946.313 423.574 945.737 420.585 944.445 420.499C943.209 420.398 943.019 422.752 943.745 428.956C944.665 437.121 944.335 438.447 939.708 443.346C937.088 446.139 935.763 448.072 935.461 449.508C935.217 450.694 935.201 451.822 935.47 451.931C936.265 452.439 939.126 449.881 941.946 446.208C945.821 441.205 947.045 440.303 952.134 438.421C958.219 436.169 961.931 434.341 962.942 433.08C963.782 432.098 963.712 432.057 961.965 431.849C960.402 431.653 959.35 432.038 955.724 433.963C953.064 435.406 950.917 436.246 950.108 436.155C948.929 436.04 949.456 435.256 954.042 429.954C959.468 423.669 961.194 420.452 959.633 419.547Z" fill="#CEB2B2"/>
<path d="M933.96 519.973C932.709 520.29 929.409 522.309 926.194 524.662C918.638 530.185 918.681 530.115 918.883 528.762C918.899 528.108 919.885 525.315 920.928 522.507C922.871 517.283 922.986 516.544 921.795 515.427C920.761 514.447 920.304 515.272 918.415 521.665C916.026 529.664 913.331 534.073 909.235 536.531C907.499 537.562 904.953 539.213 903.587 540.269L901.14 542.072L902.886 542.517C905.002 542.986 907.348 541.977 911.304 538.963C915.843 535.388 918.799 534.639 924.551 535.369C930.488 536.112 934.978 535.683 935.165 534.275C935.339 532.812 933.791 532.435 926.873 532.355C923.307 532.372 920.253 532.259 920.097 532.121C919.899 532.053 921.221 531.304 922.942 530.454C932.456 525.972 936.895 522.718 936.331 520.495C936.12 519.662 935.666 519.54 933.96 519.973Z" fill="#CEB2B2"/>
<path d="M914.842 505.42C913.423 504.597 910.949 505.579 907.136 508.438C905.158 509.945 903.28 511.13 902.982 511.147C902.726 511.093 903.712 508.773 905.181 505.976C909.588 497.584 910.735 493.036 908.634 492.385C907.526 492.075 904.204 497.826 902.089 503.803C900.903 507.001 899.831 509.698 899.604 509.756C899.377 509.813 898.346 506.94 897.387 503.398C895.639 497.217 895.498 496.898 894.318 497.019C892.556 497.229 892.864 499.635 895.492 505.948C897.923 511.956 897.948 513.487 895.68 517.67C894.711 519.335 893.639 522.268 893.28 524.192C892.691 527.121 892.746 527.817 893.682 528.881L894.744 530.209L895.359 528.574C896.616 524.944 899.198 520.09 901.05 517.846C902.118 516.57 905.875 513.489 909.418 510.994C912.974 508.555 915.82 506.414 915.778 506.247C915.721 506.025 915.339 505.708 914.842 505.42Z" fill="#CEB2B2"/>
<path d="M908.208 604.568C906.445 605.015 901.992 607.977 894.11 613.879C893.142 614.597 893.729 612.378 895.656 608.046C897.555 603.602 897.801 601.706 896.453 600.687C895.461 599.874 895.404 599.889 894.819 601.161C894.519 601.887 893.804 604.08 893.203 606.006C891.501 611.465 889.345 616.328 888.007 617.732C887.352 618.49 885.232 619.914 883.269 621.003C879.201 623.335 877.336 625.287 877.546 627.067C877.657 628.222 877.841 628.234 880.031 627.324C881.353 626.812 884.226 625.255 886.488 623.913C891.21 621.06 895.73 619.796 901.541 619.565C903.701 619.491 905.946 619.277 906.571 619.118C907.481 618.888 902.539 618.011 896.446 617.367C895.324 617.238 895.31 617.182 896.036 616.466C896.477 616.058 899.208 614.42 902.081 612.864C908.979 609.045 911.114 607.203 910.663 605.425C910.353 604.202 910.084 604.093 908.208 604.568Z" fill="#CEB2B2"/>
<path d="M888.352 589.493C887.385 589.975 884.995 591.527 882.975 592.867C881.026 594.248 878.793 595.465 878.025 595.541C876.732 595.691 876.947 595.104 880.07 589.522C881.938 586.151 883.736 582.501 884.122 581.398C885.337 577.601 883.424 575.542 881.216 578.29C880.575 579.103 878.919 582.835 877.505 586.565C876.105 590.35 874.705 593.662 874.463 593.901C874.178 594.209 873.416 592.155 872.458 588.376C870.937 582.375 870.186 581.086 868.538 581.504C867.969 581.648 868.391 583.789 870.138 590.443C872.731 600.195 872.848 598.746 869.037 607.105C866.781 612.053 866.677 614.504 868.667 614C870.202 613.611 871.642 610.939 873.302 605.55C875.262 599.198 875.746 598.721 883.894 594.822C886.909 593.348 889.969 590.621 890.043 589.242C890.101 588.754 889.575 588.828 888.352 589.493Z" fill="#CEB2B2"/>
<path d="M866.982 664.166C864.994 663.723 860.147 665.129 855.056 667.721C852.538 669.01 850.22 670.129 849.822 670.23C848.401 670.591 849.385 668.744 852.733 664.525C856.137 660.291 856.809 658.169 854.707 657.992C853.699 657.833 852.047 659.671 848 665.429C844.438 670.472 841.933 672.763 836.357 676.068L831.578 678.936L838.714 676.772L845.85 674.609L851.782 677.008C855.019 678.317 858.724 679.566 860.044 679.764C862.345 680.245 864.122 679.617 863.84 678.506C863.643 677.728 858.632 675.863 854.031 674.9C851.802 674.46 849.971 673.919 849.914 673.696C849.872 673.53 851.877 672.608 854.45 671.778C860.848 669.565 867.005 666.644 867.675 665.469C868.188 664.629 868.075 664.421 866.982 664.166Z" fill="#CEB2B2"/>
<path d="M848.156 632.624C846.156 631.416 841.913 635.685 838.105 642.624C835.01 648.317 834.627 648 834.985 640.103C835.21 634.545 834.561 632.699 832.628 633.189C831.889 633.376 831.306 633.702 831.376 633.979C831.432 634.202 831.752 637.374 832.028 641.089C832.72 649.548 832.161 652.115 828.601 655.974C825.497 659.482 824.599 660.951 824.338 663.265C824.179 664.547 824.263 664.88 824.832 664.736C825.969 664.448 829.572 660.519 832.08 656.808C833.305 654.959 835 653.051 835.711 652.516C836.494 652.022 840.574 650.692 844.781 649.626C851.774 647.853 852.428 647.569 852.046 646.778C851.155 644.934 848.57 644.998 843.465 647.061C839.001 648.784 837.139 649.078 838.279 647.843C841.397 644.392 847.822 636.08 848.265 634.962C848.893 633.384 848.851 632.98 848.156 632.624Z" fill="#CEB2B2"/>
<path d="M779.562 656.103C778.027 656.492 774.202 658.349 770.845 660.382C767.588 662.332 764.772 663.874 764.616 663.736C764.474 663.653 765.472 661.626 766.842 659.15C768.225 656.729 769.495 654.101 769.724 653.333C770.168 651.505 769.346 650.412 767.868 650.787C767.072 650.989 766.017 652.794 764.375 656.818C761.504 663.874 759.65 667.538 758.483 668.188C748.314 673.9 746.507 675.364 747.611 676.858C748.546 678.159 751.93 676.71 756.584 672.869C758.647 671.222 761.151 669.641 762.288 669.353C763.482 669.05 766.82 669.328 770.952 670.114C777.186 671.313 780.922 671.253 780.626 670.086C780.344 668.975 776.71 668.004 771.823 667.823C769.011 667.708 766.639 667.422 766.583 667.2C766.526 666.977 769.186 665.534 772.471 663.933C779.439 660.629 783.01 658.008 782.616 656.452C782.39 655.563 781.893 655.512 779.562 656.103Z" fill="#CEB2B2"/>
<path d="M785.606 692.836C783.804 691.933 777.256 691.404 772.539 691.89C767.978 692.277 767.651 692.183 769.131 690.861C769.886 690.256 771.949 688.846 773.784 687.73C777.724 685.371 779.233 683.687 778.867 682.243C778.444 680.575 776.823 681.341 770.775 686.127C764.116 691.364 762.168 692.035 755.422 691.202C750.182 690.578 748.533 690.76 747.237 692.33C746.34 693.326 746.425 693.423 748.513 693.781C749.705 693.952 752.816 694.05 755.317 693.89C761.667 693.64 764.222 694.649 769.979 699.695C772.687 702.025 775.637 704.353 776.488 704.847C778.106 705.738 778.163 705.723 777.895 704.667C777.613 703.556 775.615 701.638 770.268 697.256C768.751 696.044 767.631 694.967 767.717 694.827C767.802 694.688 770.643 694.914 774.08 695.344C783.439 696.461 785.84 696.384 786.695 694.985C787.337 693.935 787.294 693.768 785.606 692.836Z" fill="#CEB2B2"/>
<path d="M717.6 680.68C715.356 680.421 711.318 682.391 705.684 686.421C703.279 688.154 701.202 689.509 701.074 689.482C700.989 689.385 701.804 687.109 702.932 684.398C705.117 679.172 705.433 677.318 704.357 675.935C703.79 675.132 703.591 675.301 702.763 677.048C702.264 678.18 701.078 681.379 700.162 684.213C697.831 691.487 697.318 692.09 691.061 695.096C683.994 698.484 682.057 700.631 684.867 701.929C686.173 702.545 688.775 701.116 693.969 697.02C696.09 695.359 698.252 693.864 698.821 693.72C699.389 693.576 702.769 694.021 706.348 694.77C709.912 695.463 713.973 695.971 715.323 695.806L717.796 695.534L715.611 694.314C714.362 693.684 711.764 692.983 709.775 692.777C707.73 692.586 705.302 692.314 704.222 692.115C702.461 691.851 702.39 691.81 703.373 690.91C703.97 690.404 706.8 688.918 709.801 687.625C717.436 684.329 721.08 681.04 717.6 680.68Z" fill="#CEB2B2"/>
<path d="M721.414 717.446C719.527 716.446 717.126 716.286 709.838 716.655L703.26 716.962L705.138 715.539C706.148 714.751 708.481 713.213 710.302 712.042C714.541 709.43 715.524 708.294 714.632 706.923C713.797 705.538 712.787 706.09 706.213 711.186C699.212 716.509 698.331 716.851 691.414 716.061C684.995 715.323 683.701 715.473 682.945 717.025C682.517 717.961 682.644 718.225 683.95 718.84C684.83 719.209 687.003 719.427 688.907 719.299C690.768 719.241 693.624 719.05 695.186 719.008C699.008 718.808 701.945 720.37 705.985 724.61C709.032 727.8 713.373 730.84 713.786 730.085C714.228 729.44 710.699 725.781 706.926 722.834C704.742 721.14 703.041 719.679 703.126 719.539C703.169 719.469 706.621 719.718 710.725 720.156C718.622 720.993 722.757 720.596 722.703 718.953C722.647 718.494 722.095 717.747 721.414 717.446Z" fill="#CEB2B2"/>
<path d="M647.356 745.149C646.362 745.046 642.099 745.654 637.75 746.638C632.065 747.842 629.948 748.083 629.991 747.54C630.077 747.163 631.402 745.467 632.983 743.824C636.998 739.613 639.124 734.875 636.68 735.494C635.713 735.739 631.057 741 628.378 744.755C625.713 748.565 623.836 749.514 615.593 751.367C611.769 752.277 608.656 753.125 608.713 753.347C608.769 753.57 609.62 754.064 610.571 754.473C612.132 755.142 613.198 755.049 618.429 753.723C625.877 751.835 627.822 752.111 633.823 755.735C637.895 758.193 643.062 759.958 642.781 758.847C642.372 757.235 640.315 755.805 636.468 754.473C632.153 752.965 629.117 751.014 630.539 750.654C630.937 750.553 633.537 750.308 636.322 750.075C642.374 749.605 646.255 748.681 648.019 747.287C649.627 745.993 649.472 745.381 647.356 745.149Z" fill="#CEB2B2"/>
<path d="M633.993 709.857C633.07 709.559 628.858 712.992 624.003 717.949C621.782 720.167 619.804 721.911 619.591 721.787C619.378 721.664 619.653 719.406 620.227 716.658C621.448 710.73 621.168 708.435 619.406 708.645C618 708.825 617.512 710.959 617.441 717.364C617.369 724.48 616.684 726.073 611.787 730.863C606.975 735.513 605.607 737.515 606.4 738.734C607.689 740.477 612.498 737.247 614.452 733.263C614.724 732.661 615.778 731.33 616.746 730.375C618.326 728.732 619.094 728.419 627.508 726.286C633.819 724.687 636.563 723.814 636.607 723.27C636.709 722.002 632.404 722.207 627.883 723.707C620.861 726.079 620.578 725.441 626.626 720.655C629.5 718.389 632.646 715.521 633.543 714.288C635.125 712.172 635.313 710.291 633.993 709.857Z" fill="#CEB2B2"/>
<path d="M363.213 650.384C361.227 650.214 357.059 651.576 352.404 653.982C349.855 655.302 347.041 656.566 346.158 656.79C344.744 657.149 344.583 657.006 344.835 656.023C344.984 655.373 346.991 652.658 349.248 649.942C353.188 645.206 353.647 643.803 351.337 643.592C350.616 643.468 349.008 645.53 346.261 650.025C344.031 653.592 341.507 656.989 340.579 657.531C339.724 658.115 336.115 659.704 332.61 661.205C325.908 663.945 323.638 665.623 325.564 666.299C326.255 666.553 329.288 665.906 334.59 664.318L342.556 661.869L346.643 663.652C351.128 665.517 357.747 666.903 359.205 666.227C360.723 665.536 357.165 663.619 351.797 662.223C349.238 661.524 347.047 660.792 346.842 660.477C346.651 660.219 349.538 658.752 353.338 657.176C360.791 654.184 364.092 652.367 364.182 651.241C364.212 650.866 363.801 650.48 363.213 650.384Z" fill="#E7DFDF"/>
<path d="M344.063 618.111C341.724 617.539 339.793 619.316 335.629 625.885C333.384 629.395 331.377 632.354 331.141 632.414C330.552 632.563 330.426 629.593 330.76 624.73C331.124 619.981 330.334 617.608 328.685 618.026C327.625 618.295 327.593 619.161 328.123 625.95C328.797 634.54 328.365 636.794 325.296 640.512C321.195 645.351 319.822 647.353 319.376 649.059C318.234 653.453 322.08 650.824 326.215 644.384C328.105 641.455 330.23 638.71 330.937 638.286C331.703 637.847 335.591 636.616 339.64 635.529C344.043 634.351 347.445 633.183 348.049 632.601C349.008 631.684 348.861 631.599 346.581 631.258C344.506 630.987 343.196 631.258 338.822 632.795C335.891 633.844 333.461 634.644 333.329 634.616C333.255 634.574 335.97 631.19 339.438 627.064C342.846 622.953 345.62 619.309 345.547 619.021C345.46 618.676 344.798 618.292 344.063 618.111Z" fill="#E7DFDF"/>
<path d="M288.733 685.683C286.349 685.674 281.797 687.502 276.566 690.605C270.938 693.869 269.511 693.68 272.344 690.021C273.377 688.656 275.148 686.246 276.226 684.564C277.998 681.909 278.117 681.389 277.384 679.982L276.49 678.432L272.767 685.012C270.67 688.607 268.337 692.017 267.541 692.586C266.745 693.155 263.121 694.932 259.586 696.563C252.84 699.621 250.658 701.399 252.053 702.7C253.037 703.614 255.908 702.825 262.699 699.695C265.616 698.343 268.723 697.249 269.665 697.255C270.533 697.219 273.445 698.074 276.048 699.191C280.591 701.041 285.798 702.295 286.211 701.7C286.728 700.772 283.2 698.971 278.111 697.688C274.89 696.85 272.096 695.965 271.861 695.78C271.611 695.537 272.495 695.067 273.791 694.739C277.207 693.873 284.586 690.839 287.931 688.949C291.054 687.177 291.426 685.674 288.733 685.683Z" fill="#E7DFDF"/>
<path d="M270.614 652.78C268.483 651.544 266.374 653.61 260.498 662.574C258.549 665.518 256.822 667.855 256.661 667.713C256.44 667.585 256.387 665.148 256.54 662.29C256.816 656.952 256.22 653.856 254.881 653.766C253.601 653.662 253.404 656.101 254.155 662.527C255.109 670.986 254.767 672.359 249.973 677.434C247.26 680.327 245.887 682.329 245.574 683.818C245.322 685.046 245.304 686.214 245.584 686.327C246.407 686.854 249.37 684.203 252.292 680.399C256.306 675.216 257.574 674.282 262.846 672.333C269.15 670 272.995 668.106 274.042 666.799C274.913 665.782 274.839 665.739 273.03 665.524C271.411 665.322 270.322 665.72 266.565 667.714C263.81 669.209 261.586 670.079 260.747 669.985C259.526 669.866 260.072 669.054 264.822 663.561C270.443 657.051 272.231 653.718 270.614 652.78Z" fill="#E7DFDF"/>
<path d="M244.019 756.813C242.724 757.141 239.305 759.233 235.974 761.67C228.147 767.392 228.192 767.319 228.401 765.918C228.417 765.24 229.439 762.347 230.519 759.438C232.532 754.027 232.652 753.261 231.418 752.104C230.346 751.089 229.873 751.944 227.916 758.566C225.441 766.852 222.65 771.42 218.406 773.966C216.608 775.034 213.97 776.744 212.555 777.838L210.02 779.706L211.829 780.166C214.021 780.652 216.451 779.607 220.549 776.486C225.251 772.782 228.314 772.006 234.272 772.762C240.422 773.531 245.073 773.088 245.268 771.629C245.448 770.113 243.844 769.723 236.678 769.64C232.984 769.658 229.82 769.541 229.659 769.398C229.453 769.327 230.823 768.551 232.606 767.671C242.461 763.028 247.059 759.657 246.476 757.354C246.257 756.491 245.786 756.365 244.019 756.813Z" fill="#E7DFDF"/>
<path d="M224.215 741.737C222.745 740.885 220.182 741.902 216.232 744.864C214.183 746.425 212.238 747.653 211.929 747.67C211.664 747.614 212.684 745.211 214.206 742.314C218.772 733.621 219.96 728.908 217.783 728.235C216.636 727.913 213.195 733.87 211.003 740.062C209.775 743.376 208.665 746.169 208.429 746.229C208.194 746.288 207.126 743.312 206.133 739.643C204.322 733.24 204.176 732.909 202.954 733.035C201.129 733.253 201.447 735.745 204.17 742.284C206.688 748.508 206.714 750.094 204.365 754.427C203.36 756.152 202.25 759.191 201.878 761.184C201.268 764.218 201.325 764.939 202.294 766.041L203.395 767.416L204.031 765.723C205.335 761.962 208.009 756.934 209.927 754.61C211.034 753.288 214.926 750.096 218.595 747.512C222.28 744.985 225.228 742.767 225.184 742.594C225.126 742.364 224.729 742.036 224.215 741.737Z" fill="#E7DFDF"/>
<path d="M217.342 844.447C215.516 844.91 210.903 847.978 202.738 854.092C201.735 854.836 202.344 852.537 204.34 848.049C206.307 843.445 206.561 841.482 205.166 840.426C204.137 839.584 204.079 839.599 203.472 840.917C203.162 841.67 202.421 843.94 201.799 845.936C200.035 851.591 197.802 856.629 196.416 858.083C195.737 858.868 193.541 860.344 191.508 861.472C187.294 863.888 185.362 865.909 185.579 867.754C185.694 868.95 185.885 868.963 188.153 868.02C189.523 867.489 192.499 865.877 194.842 864.487C199.734 861.531 204.417 860.222 210.436 859.982C212.673 859.906 214.999 859.684 215.647 859.519C216.589 859.281 211.47 858.373 205.158 857.706C203.996 857.571 203.981 857.514 204.733 856.772C205.19 856.349 208.019 854.652 210.996 853.04C218.141 849.084 220.353 847.176 219.886 845.334C219.565 844.067 219.286 843.954 217.342 844.447Z" fill="#E7DFDF"/>
<path d="M196.773 828.83C195.771 829.329 193.296 830.937 191.203 832.325C189.184 833.756 186.871 835.016 186.076 835.095C184.736 835.251 184.958 834.643 188.194 828.86C190.129 825.368 191.991 821.587 192.391 820.444C193.65 816.51 191.668 814.378 189.381 817.225C188.717 818.067 187.002 821.933 185.537 825.797C184.086 829.718 182.636 833.149 182.386 833.396C182.091 833.716 181.301 831.588 180.308 827.673C178.732 821.456 177.955 820.121 176.247 820.554C175.658 820.703 176.095 822.921 177.905 829.814C180.591 839.916 180.712 838.415 176.764 847.074C174.428 852.2 174.319 854.739 176.381 854.217C177.971 853.814 179.463 851.046 181.182 845.464C183.213 838.884 183.714 838.389 192.155 834.35C195.278 832.824 198.448 829.998 198.525 828.57C198.585 828.064 198.04 828.141 196.773 828.83Z" fill="#E7DFDF"/>
<path d="M1179.44 754.816C1178.58 753.303 1174.88 750.78 1169.59 748.123C1159.43 742.99 1158.24 742.279 1159.54 741.748C1160.19 741.552 1164.17 741.082 1168.39 740.714C1172.61 740.346 1176.35 739.772 1176.7 739.449C1177.02 739.042 1176.39 738.504 1174.52 737.708C1171.74 736.526 1171.68 736.5 1161.12 739.038C1158.57 739.648 1155.6 739.937 1154.44 739.646C1153.25 739.413 1150.16 737.624 1147.29 735.658C1140.76 731.054 1136.84 729.383 1134.84 730.224C1133.38 730.818 1133.41 730.901 1135.1 732.296C1136.04 733.102 1139.7 735.065 1143.13 736.727C1150.53 740.283 1152.21 741.876 1152.87 746.352C1153.4 749.96 1157.28 758.781 1159.5 761.28C1160.79 762.776 1161.12 762.987 1162.04 762.5C1163.75 761.671 1163.47 759.656 1160.49 753.923C1157.68 748.465 1156.84 746.416 1157.04 745.76C1157.24 745.302 1160.93 747.686 1166.23 751.833C1172.83 756.941 1178.55 758.905 1179.6 756.442C1179.77 756.041 1179.65 755.314 1179.44 754.816Z" fill="#E7DFDF"/>
<path d="M1184.56 707.076C1182.92 705.567 1179.29 705.376 1170.27 706.473C1165.1 707.048 1160.53 707.402 1160.11 707.222C1159.08 706.785 1159.73 706.252 1166.48 701.954C1169.81 699.85 1171.52 698.345 1172.08 697.028C1172.61 695.768 1172.6 694.952 1172.12 694.747C1170.19 693.924 1163.22 698.4 1158.62 703.342C1154.1 708.253 1150.96 709.281 1143.84 708.077C1138.58 707.193 1135.92 707.413 1134.29 708.886C1130.74 712.041 1132.66 712.723 1142.31 711.826C1152.75 710.925 1153.83 711.247 1164.52 718.976C1172.11 724.438 1174.33 725.248 1174.34 722.546C1174.37 721.138 1172.39 719.417 1167.09 716.282C1161.24 712.776 1160.03 711.925 1160.3 711.295C1160.42 711.008 1160.76 710.882 1161.12 711.036C1161.42 711.165 1165.77 711.186 1170.7 710.986C1181.91 710.617 1186.86 709.206 1184.56 707.076Z" fill="#E7DFDF"/>
<path d="M1107.82 738.975C1105.99 738.168 1101.68 738.647 1092.47 740.627C1088.43 741.543 1084.97 742.147 1084.81 742.067C1084.59 742.006 1086.61 739.886 1089.27 737.376C1093.65 733.298 1096.46 729.246 1096 727.758C1095.33 725.557 1086.38 733.771 1081.33 741.247C1078.96 744.709 1077.08 745.286 1069.72 745.007C1063.18 744.735 1059.68 745.616 1058.65 747.625C1058.2 748.413 1058.02 749.381 1058.13 749.738C1058.38 750.571 1063.28 750.434 1072.7 749.365C1076.73 748.844 1080.77 748.581 1081.86 748.768C1083.73 749.041 1087.91 751.272 1094.83 755.464C1098.56 757.771 1100 757.783 1100.67 755.493C1100.94 754.368 1099.9 753.647 1092.84 750.344C1088.28 748.229 1084.55 746.377 1084.5 746.199C1084.45 746.02 1087.97 745.654 1092.34 745.354C1096.65 745.074 1102.07 744.387 1104.26 743.713C1107.69 742.792 1108.32 742.401 1108.75 741.099C1109.23 739.778 1109.08 739.5 1107.82 738.975Z" fill="#E7DFDF"/>
<path d="M1081.09 699.977C1079.38 699.33 1076.61 701.483 1069.58 708.783C1066 712.552 1062.89 715.395 1062.74 715.116C1062.52 714.857 1063.25 711.639 1064.47 708.009C1066.1 702.82 1066.45 700.824 1065.92 699.099C1065.45 697.552 1065 696.974 1064.3 697.186C1062.92 697.61 1060.81 705.031 1059.95 712.066C1059.07 719.497 1057.64 722.216 1052.82 725.519C1050.78 726.926 1048.22 728.883 1047.2 729.784C1045.05 731.745 1043.51 734.561 1044.39 734.746C1046.46 735.219 1056.26 728.436 1059.78 724.034C1061.71 721.616 1062.92 721.31 1073.52 720.726C1084.45 720.105 1084.7 720.028 1084.16 718.243C1083.57 716.339 1081.26 716.201 1074.48 717.568C1068.46 718.765 1066.49 718.847 1066.24 718.014C1066.15 717.717 1066.14 717.459 1066.26 717.421C1066.32 717.402 1069.46 714.876 1073.18 711.781C1081.89 704.613 1084.2 701.17 1081.09 699.977Z" fill="#E7DFDF"/>
<path d="M1039.57 776.969C1036.45 777.315 1032.67 778.4 1025.13 781.189C1021.1 782.671 1017.76 783.751 1017.65 783.527C1017.54 783.304 1019 781.205 1020.87 778.906C1024.55 774.334 1026.98 769.75 1026.33 768.408C1025.7 767.122 1023.99 768.998 1019.77 775.91C1013.6 785.853 1014.49 785.14 1002.95 788.566C995.005 790.854 992.289 792.32 992.406 794.203C992.531 795.804 993.638 795.679 1004.58 793.103C1015.75 790.411 1017.81 790.443 1025.13 793.45C1034.79 797.385 1034.3 797.279 1034.96 795.921C1035.98 793.828 1034.65 792.606 1030.13 791.423C1027.77 790.776 1024.08 789.807 1021.98 789.241C1019.87 788.675 1018.18 788.049 1018.3 787.85C1018.4 787.596 1022.35 786.565 1027.05 785.582C1031.79 784.513 1036.71 783.218 1038.01 782.584C1042.25 780.509 1043.3 776.531 1039.57 776.969Z" fill="#E7DFDF"/>
<path d="M1008.71 742.379C1007.02 740.852 1003.75 744.181 996.907 754.245C994.259 758.242 991.927 761.391 991.695 761.365C991.495 761.255 991.485 757.796 991.7 753.604C992.012 748.116 991.799 745.588 991.053 744.359L990.001 742.656L989.17 745.141C988.75 746.524 988.565 749.732 988.72 752.289C988.901 754.902 988.866 757.968 988.682 759.236C987.805 764.167 983.139 772.406 978.128 777.696C976.27 779.574 974.911 781.277 975.021 781.501C975.376 782.228 978.237 782.7 979.298 782.181C979.829 781.922 982.234 779.222 984.535 776.158C988.498 770.964 989.064 770.48 993.015 768.549C995.609 767.281 999.715 765.967 1003.49 765.163C1010.24 763.733 1012.94 762.689 1013.09 761.506C1013.25 760.182 1011.51 759.022 1009.54 759.158C1007.94 759.176 999.926 761.915 995.598 763.822C993.861 764.602 995.981 761.765 1001.2 756.163C1006.94 750.105 1009.42 746.673 1009.57 744.59C1009.57 743.831 1009.59 743.128 1009.48 743.045C1009.42 742.933 1009.05 742.628 1008.71 742.379Z" fill="#E7DFDF"/>
<path d="M989.51 824.022C987.795 825.314 985.382 829.388 983.295 834.64C982.154 837.518 980.762 840.542 980.206 841.354C979.316 842.653 979.088 842.656 978.614 841.695C978.286 841.073 978.032 837.479 977.977 833.703C977.885 827.118 977.288 825.675 975.286 827.167C974.621 827.587 974.747 830.378 975.632 835.915C976.295 840.346 976.604 844.852 976.23 845.949C975.945 847.026 974.137 850.878 972.352 854.587C968.849 861.575 968.179 864.536 970.193 863.688C970.924 863.393 972.917 860.701 976.086 855.633L980.806 847.969L985.319 846.446C990.209 844.703 996.484 841.047 997.192 839.463C997.936 837.825 993.757 838.861 988.479 841.61C985.941 842.894 983.676 843.889 983.293 843.786C982.962 843.718 984.274 840.481 986.245 836.501C990.178 828.774 991.581 824.963 990.879 824.005C990.645 823.686 990.049 823.675 989.51 824.022Z" fill="#E7DFDF"/>
<path d="M951.899 812.187C949.625 813.414 949.295 816.211 950.469 824.411C951.08 828.807 951.503 832.596 951.354 832.813C950.984 833.354 948.838 831.089 945.759 826.993C942.783 822.966 940.515 821.652 939.477 823.168C938.809 824.143 939.38 824.852 944.479 829.854C950.933 836.183 952.137 838.28 952.229 843.433C952.261 850.216 952.536 852.79 953.352 854.463C955.458 858.768 956.741 853.92 955.633 845.843C955.136 842.163 954.955 838.46 955.232 837.615C955.546 836.717 957.825 832.948 960.332 829.176C963.061 825.08 964.992 821.71 965.077 820.814C965.217 819.398 965.04 819.436 962.972 820.804C961.118 822.079 960.251 823.235 957.792 827.597C956.158 830.534 954.755 832.914 954.629 832.987C954.541 833.006 954.395 828.372 954.343 822.61C954.253 816.901 953.976 812.019 953.719 811.843C953.411 811.632 952.615 811.803 951.899 812.187Z" fill="#E7DFDF"/>
<path d="M589.232 778.468C587.314 778.304 583.291 779.619 578.797 781.941C576.337 783.215 573.621 784.436 572.768 784.652C571.404 784.998 571.248 784.86 571.491 783.911C571.635 783.283 573.572 780.663 575.751 778.041C579.554 773.469 579.997 772.115 577.768 771.911C577.072 771.792 575.519 773.782 572.867 778.121C570.715 781.565 568.279 784.844 567.383 785.367C566.557 785.931 563.074 787.464 559.69 788.913C553.22 791.559 551.029 793.179 552.889 793.831C553.556 794.076 556.483 793.452 561.601 791.918L569.291 789.555L573.237 791.276C577.566 793.076 583.955 794.414 585.363 793.761C586.828 793.094 583.394 791.244 578.212 789.896C575.741 789.221 573.626 788.515 573.428 788.211C573.244 787.962 576.031 786.545 579.7 785.024C586.894 782.136 590.08 780.382 590.168 779.295C590.197 778.933 589.8 778.561 589.232 778.468Z" fill="#CEB2B2"/>
<path d="M570.746 747.313C568.488 746.762 566.624 748.477 562.604 754.818C560.437 758.206 558.499 761.063 558.272 761.121C557.703 761.265 557.582 758.398 557.904 753.703C558.255 749.119 557.493 746.829 555.901 747.232C554.878 747.491 554.847 748.327 555.359 754.881C556.009 763.173 555.592 765.349 552.63 768.939C548.67 773.609 547.345 775.542 546.915 777.188C545.812 781.431 549.525 778.892 553.516 772.676C555.341 769.848 557.392 767.199 558.075 766.789C558.815 766.365 562.568 765.178 566.476 764.128C570.726 762.991 574.01 761.863 574.594 761.301C575.519 760.416 575.377 760.334 573.176 760.004C571.174 759.743 569.909 760.005 565.687 761.489C562.857 762.502 560.512 763.274 560.384 763.247C560.313 763.206 562.934 759.939 566.281 755.956C569.571 751.988 572.249 748.47 572.179 748.192C572.094 747.859 571.456 747.488 570.746 747.313Z" fill="#CEB2B2"/>
<path d="M517.334 812.543C515.032 812.535 510.639 814.299 505.589 817.294C500.156 820.446 498.778 820.262 501.514 816.73C502.511 815.413 504.221 813.087 505.261 811.463C506.971 808.9 507.086 808.398 506.379 807.04L505.515 805.543L501.922 811.895C499.897 815.366 497.645 818.657 496.877 819.207C496.109 819.756 492.611 821.471 489.198 823.046C482.685 825.998 480.579 827.714 481.926 828.97C482.876 829.853 485.647 829.091 492.203 826.069C495.018 824.764 498.018 823.708 498.927 823.714C499.766 823.679 502.577 824.504 505.089 825.583C509.474 827.369 514.501 828.579 514.9 828.005C515.399 827.109 511.993 825.37 507.081 824.131C503.971 823.323 501.274 822.469 501.047 822.29C500.806 822.055 501.659 821.602 502.91 821.285C506.208 820.449 513.331 817.52 516.56 815.696C519.575 813.986 519.933 812.534 517.334 812.543Z" fill="#CEB2B2"/>
<path d="M499.844 780.781C497.786 779.587 495.751 781.582 490.078 790.235C488.197 793.078 486.53 795.334 486.374 795.196C486.161 795.072 486.109 792.72 486.257 789.962C486.524 784.808 485.948 781.819 484.656 781.733C483.42 781.632 483.23 783.987 483.955 790.19C484.875 798.355 484.546 799.681 479.918 804.58C477.299 807.373 475.973 809.306 475.672 810.742C475.428 811.928 475.411 813.056 475.681 813.165C476.475 813.673 479.336 811.115 482.157 807.443C486.032 802.439 487.255 801.537 492.345 799.656C498.43 797.403 502.142 795.576 503.153 794.314C503.993 793.332 503.922 793.291 502.175 793.083C500.613 792.888 499.561 793.272 495.934 795.197C493.275 796.64 491.128 797.48 490.318 797.39C489.14 797.274 489.667 796.49 494.253 791.188C499.678 784.904 501.404 781.686 499.844 780.781Z" fill="#CEB2B2"/>
<path d="M257.673 340.818C256.034 341.34 251.646 340.676 246.02 339.04C235.196 335.924 233.849 335.636 234.432 336.894C234.775 337.476 237.345 340.498 240.16 343.609C242.975 346.72 245.302 349.654 245.339 350.126C245.294 350.634 244.477 350.602 242.582 349.919C239.771 348.905 239.709 348.883 233.754 339.924C232.32 337.77 230.356 335.555 229.319 334.985C228.302 334.356 224.855 333.572 221.447 333.064C213.61 332.007 209.637 330.575 208.754 328.619C208.091 327.201 208.173 327.165 210.338 327.291C211.563 327.34 215.539 328.38 219.147 329.484C226.912 331.89 229.201 331.864 232.697 329.063C235.514 326.804 244.269 323.017 247.561 322.697C249.504 322.48 249.891 322.554 250.231 323.528C250.911 325.28 249.348 326.551 243.324 328.702C237.607 330.768 235.618 331.688 235.327 332.304C235.16 332.767 239.444 333.526 246.08 334.084C254.308 334.823 259.785 337.256 258.887 339.749C258.74 340.154 258.165 340.602 257.673 340.818Z" fill="#E7DFDF"/>
<path d="M229.232 378.904C227.026 378.895 224.266 376.59 218.457 369.714C215.096 365.817 212.017 362.48 211.589 362.326C210.55 361.952 210.666 362.779 212.669 370.444C213.66 374.208 213.887 376.451 213.407 377.784C212.947 379.059 212.391 379.645 211.902 379.469C209.946 378.764 207.905 370.823 207.897 364.139C207.93 357.535 206.338 354.669 200.363 350.747C195.952 347.847 194.17 345.894 193.983 343.731C193.53 339.048 195.383 339.847 201.782 347.001C208.749 354.687 209.747 355.177 222.708 356.771C231.893 357.921 234.052 358.83 232.238 360.796C231.31 361.837 228.716 361.754 222.76 360.458C216.152 359.058 214.702 358.863 214.473 359.501C214.368 359.791 214.529 360.111 214.896 360.243C215.201 360.353 218.365 363.262 221.811 366.731C229.696 374.552 232.338 378.91 229.232 378.904Z" fill="#E7DFDF"/>
<path d="M177.662 297.237C175.818 297.948 171.573 297.269 162.562 294.872C158.607 293.774 155.221 293.012 155.057 293.084C154.832 293.134 156.735 295.326 159.248 297.935C163.382 302.176 165.964 306.317 165.441 307.766C164.668 309.911 156.217 301.362 151.578 293.729C149.4 290.193 147.567 289.532 140.273 289.457C133.796 289.415 130.372 288.377 129.448 286.341C129.046 285.541 128.911 284.575 129.036 284.228C129.329 283.416 134.168 283.785 143.432 285.291C147.391 285.997 151.371 286.45 152.455 286.316C154.316 286.136 158.561 284.129 165.6 280.313C169.397 278.21 170.827 278.267 171.38 280.563C171.596 281.688 170.528 282.352 163.395 285.282C158.782 287.156 155.01 288.809 154.947 288.983C154.884 289.157 158.353 289.687 162.661 290.192C166.907 290.674 172.232 291.612 174.371 292.383C177.713 293.457 178.323 293.873 178.68 295.181C179.099 296.51 178.933 296.778 177.662 297.237Z" fill="#E7DFDF"/>
<path d="M149.372 334.526C147.651 335.085 145.013 332.824 138.413 325.27C135.052 321.373 132.113 318.414 131.948 318.682C131.721 318.928 132.288 322.145 133.321 325.793C134.689 331.002 134.939 332.991 134.333 334.672C133.789 336.18 133.315 336.729 132.643 336.487C131.298 336.002 129.56 328.563 129.044 321.565C128.531 314.175 127.245 311.419 122.635 307.924C120.686 306.435 118.25 304.378 117.277 303.438C115.25 301.397 113.863 298.539 114.743 298.398C116.81 298.029 126.171 305.203 129.445 309.723C131.244 312.206 132.426 312.566 142.878 313.649C153.657 314.784 153.902 314.872 153.275 316.611C152.606 318.466 150.318 318.492 143.67 316.816C137.777 315.347 135.837 315.172 135.545 315.983C135.44 316.273 135.418 316.527 135.54 316.571C135.601 316.593 138.584 319.24 142.113 322.478C150.389 329.981 152.506 333.495 149.372 334.526Z" fill="#E7DFDF"/>
<path d="M83.6557 246.122C80.5501 246.116 76.7142 245.454 68.986 243.52C64.8669 242.493 61.4604 241.789 61.3768 242.021C61.2932 242.253 62.9534 244.161 65.0414 246.224C69.1562 250.327 72.0439 254.578 71.5424 255.969C71.0618 257.302 69.1749 255.64 64.2812 249.291C57.1418 240.167 58.0973 240.773 46.3659 238.64C38.3065 237.241 35.4757 236.09 35.3885 234.225C35.3399 232.635 36.4432 232.64 47.486 234.001C58.7733 235.45 60.7981 235.197 67.6729 231.453C76.7636 226.542 76.2924 226.7 77.0791 227.966C78.3098 229.916 77.1344 231.261 72.81 232.912C70.5554 233.802 67.0303 235.151 65.0216 235.933C63.013 236.716 61.4129 237.515 61.5545 237.697C61.6752 237.937 65.6751 238.527 70.4116 238.99C75.1884 239.533 80.1678 240.28 81.5124 240.765C85.9131 242.351 87.3741 246.153 83.6557 246.122Z" fill="#E7DFDF"/>
<path d="M56.999 283.476C55.494 285.161 51.9214 282.236 44.1081 273.065C41.0725 269.417 38.4392 266.568 38.214 266.618C38.0291 266.747 38.39 270.153 39.0518 274.256C39.9487 279.622 40.0103 282.134 39.4075 283.423L38.5554 285.212L37.471 282.856C36.9094 281.54 36.3829 278.403 36.2602 275.869C36.1583 273.278 35.7943 270.265 35.4772 269.037C34.0851 264.278 28.609 256.671 23.1093 252.003C21.0793 250.354 19.5592 248.823 19.6427 248.591C19.9144 247.838 22.6789 247.066 23.7791 247.462C24.3291 247.661 26.9865 250.06 29.5796 252.829C34.0371 257.514 34.6467 257.93 38.7418 259.406C41.431 260.376 45.6128 261.228 49.41 261.615C56.2084 262.297 58.9813 263.035 59.2581 264.182C59.5543 265.468 57.9704 266.797 56.0083 266.875C54.4338 267.028 46.2552 265.193 41.7919 263.781C39.9986 263.2 42.389 265.765 48.1316 270.717C54.4227 276.063 57.2378 279.174 57.6097 281.208C57.6855 281.955 57.7821 282.645 57.6792 282.739C57.6374 282.855 57.3078 283.195 56.999 283.476Z" fill="#E7DFDF"/>
</svg>
